# xmcd
#
# Track frame offsets:
#	150
#	16311
#	31762
#	47178
#	65150
#	81826
#	98028
#
# Disc length: 1511 seconds
#
# Revision: 1
# Processed by: cddbd v1.5.2PL0 Copyright (c) Steve Scherf et al.
# Submitted via: EasyCDDAExtractor 16.1.0.1
#
DISCID=5205e507
DTITLE=에이핑크(Apink) - Pink Blossom [Mini Album Vol. 4]
DYEAR=2014
DGENRE=KPop
TTITLE0=SUNDAY MONDAY (썬데이 먼데이)
TTITLE1=Mr. Chu (On Stage)
TTITLE2=Crystal (크리스탈)
TTITLE3=Fairytale Love (사랑동화)
TTITLE4=So Long
TTITLE5=Mr. Chu
TTITLE6=Mr. Chu (Instrumental)
EXTD=
EXTT0=
EXTT1=
EXTT2=
EXTT3=
EXTT4=
EXTT5=
EXTT6=
PLAYORDER=
